<?xml version="1.0" encoding="utf-8"?>
<!-- Generator: Adobe Illustrator 16.0.0, SVG Export Plug-In . SVG Version: 6.00 Build 0)  -->
<!DOCTYPE svg PUBLIC "-//W3C//DTD SVG 1.1//EN" "http://www.w3.org/Graphics/SVG/1.1/DTD/svg11.dtd">
<svg version="1.1" id="Artwork" xmlns="http://www.w3.org/2000/svg" xmlns:xlink="http://www.w3.org/1999/xlink" x="0px" y="0px"
	 width="956.69px" height="212.6px" viewBox="0 0 956.69 212.6" enable-background="new 0 0 956.69 212.6" xml:space="preserve">
<g>
	<path fill="#FFFFFF" d="M850.394,0L850.394,0L0,0v21.26h850.394v0c46.892,0,85.04,38.148,85.04,85.039
		c0,46.89-38.148,85.039-85.04,85.039H0v21.26h850.394c58.708,0,106.3-47.592,106.3-106.298C956.693,47.592,909.102,0,850.394,0z"/>
	<path fill="#FFFFFF" d="M396.851,80.679c-15.442,0-20.493,1.362-20.936,15.1v20.915c0.442,13.863,5.493,15.227,20.936,15.227
		s20.936-1.363,20.936-15.227V95.779C417.786,82.042,412.293,80.679,396.851,80.679z"/>
	<path fill="#FFFFFF" d="M924.803,106.299c0-41.029-33.379-74.409-74.409-74.409H0v148.819h850.394
		C891.424,180.709,924.803,147.328,924.803,106.299z M448.375,119.418c0,28.592-21.381,34.037-51.524,34.037
		s-51.524-5.445-51.524-34.037V93.18c0-28.591,21.381-34.037,51.524-34.037s51.524,5.446,51.524,34.037V119.418z M580.569,152.711
		h-29.695v-36.387h-38.757v36.387h-29.694V59.887h29.694v34.901h38.757V59.887h29.695V152.711z M715.143,120.285
		c0,10.148-0.146,19.307-10.246,26.361c-10.098,6.932-22.42,6.809-35.34,6.809c-30.287,0-52.416-1.236-52.416-35.15V94.293
		c0-30.694,19.75-35.15,52.416-35.15c30.592,0,44.842,2.602,45.439,30.448v3.589h-30.59v-3.589
		c-1.039-8.294-8.018-8.912-18.117-8.912c-16.924,0-18.559,4.333-18.559,17.575v14.482c0,13.859,0.744,19.184,18.559,19.184
		c12.328,0,18.264-0.742,18.264-11.635v-2.725h30.59V120.285z"/>
</g>
</svg>
