<?xml version="1.0" encoding="utf-8"?>
<!-- Generator: Adobe Illustrator 16.0.0, SVG Export Plug-In . SVG Version: 6.00 Build 0)  -->
<!DOCTYPE svg PUBLIC "-//W3C//DTD SVG 1.1//EN" "http://www.w3.org/Graphics/SVG/1.1/DTD/svg11.dtd">
<svg version="1.1" xmlns="http://www.w3.org/2000/svg" xmlns:xlink="http://www.w3.org/1999/xlink" x="0px" y="0px"
	 width="1133.86px" height="637.795px" viewBox="0 0 1133.86 637.795" enable-background="new 0 0 1133.86 637.795"
	 xml:space="preserve">
<g id="Frame">
	
		<path fill="none" stroke="#FFFFFF" stroke-width="5.6693" stroke-linecap="round" stroke-linejoin="round" stroke-miterlimit="10" d="
		M1133.858,566.932c0,39.139-31.728,70.866-70.866,70.866H70.867C31.729,637.798,0,606.071,0,566.932V70.866
		C0,31.728,31.729,0,70.867,0h992.125c39.139,0,70.866,31.728,70.866,70.866V566.932z"/>
</g>
<g id="Artwork">
	<g>
		
			<path fill="none" stroke="#FFFFFF" stroke-width="5.6693" stroke-linecap="round" stroke-linejoin="round" stroke-miterlimit="10" d="
			M70.866,0c39.143,0,70.867,31.729,70.867,70.856c0,39.146-31.73,70.876-70.867,70.876S0,110.003,0,70.856"/>
	</g>
	<g>
		
			<path fill="none" stroke="#FFFFFF" stroke-width="5.6693" stroke-linecap="round" stroke-linejoin="round" stroke-miterlimit="10" d="
			M39.861,82.804c1.492-4.008,3.719-7.642,6.624-10.81c2.903-3.17,6.33-5.706,10.193-7.542c3.994-1.899,8.284-2.963,12.744-3.156
			c4.46-0.196,8.828,0.488,12.972,2.034c4.011,1.493,7.646,3.72,10.815,6.623c3.166,2.901,5.703,6.331,7.537,10.19"/>
		<polygon fill="#FFFFFF" points="108.146,77.451 100.747,80.144 93.348,82.838 105.055,91.982 		"/>
		<polygon fill="#FFFFFF" points="32.464,80.109 39.861,82.804 47.261,85.496 35.555,94.642 		"/>
	</g>
	
		<line fill="none" stroke="#FFFFFF" stroke-width="5.6693" stroke-linecap="round" stroke-linejoin="round" stroke-miterlimit="10" x1="70.865" y1="18.426" x2="70.865" y2="46.772"/>
	
		<line fill="none" stroke="#FFFFFF" stroke-width="5.6693" stroke-linecap="round" stroke-linejoin="round" stroke-miterlimit="10" x1="70.869" y1="123.307" x2="70.869" y2="94.96"/>
	<g>
		
			<text transform="matrix(1 0 0 1 212.5981 93.9062)" fill="#FFFFFF" font-family="'Nudista-Medium'" font-size="72" letter-spacing="1">PITCH</text>
	</g>
	<g>
		
			<path fill="none" stroke="#FFFFFF" stroke-width="2.8346" stroke-linecap="round" stroke-linejoin="round" stroke-miterlimit="10" d="
			M1062.988,106.3c-19.568,0-35.433-15.864-35.433-35.438c0-19.563,15.864-35.428,35.433-35.428
			c19.571,0,35.434,15.864,35.434,35.428C1098.422,90.436,1082.557,106.3,1062.988,106.3z"/>
	</g>
	<g opacity="0.25">
		<path fill="#FFFFFF" d="M1062.988,88.583c-9.784,0-17.716-7.932-17.716-17.719c0-9.781,7.932-17.713,17.716-17.713
			c9.786,0,17.717,7.932,17.717,17.713C1080.705,80.651,1072.772,88.583,1062.988,88.583z"/>
	</g>
	<text transform="matrix(1 0 0 1 811.5703 253.3999)" fill="#FFFFFF" font-family="'Nudista-Medium'" font-size="48">30°</text>
	<text transform="matrix(1 0 0 1 799.1377 556.8491)" fill="#FFFFFF" font-family="'Nudista-Medium'" font-size="48">-30°</text>
	<text transform="matrix(1 0 0 1 875.8994 405.1245)" fill="#FFFFFF" font-family="'Nudista-Medium'" font-size="48">0°</text>
	<text transform="matrix(1 0 0 1 41.7275 546.8569)" fill="#FFFFFF" font-family="'Nudista-Medium'" font-size="48">SP</text>
	
		<rect x="141.731" y="506.693" fill="none" stroke="#FFFFFF" stroke-width="1.9842" stroke-linecap="round" stroke-linejoin="round" stroke-miterlimit="10" width="49.604" height="49.607"/>
	<text transform="matrix(1 0 0 1 695.6396 435.4438)" fill="#EF4136" font-family="'Nudista-SemiBold'" font-size="60">-0.0°</text>
	<text transform="matrix(1 0 0 1 712.1396 382.4233)" fill="#FFFFFF" font-family="'Nudista-SemiBold'" font-size="60">0.0°</text>
	<g>
		<text transform="matrix(1 0 0 1 136.2109 383.0542)" fill="#FFFFFF" font-family="'Nudista-SemiBold'" font-size="24">NOSE</text>
		<g>
			
				<polyline fill="none" stroke="#FFFFFF" stroke-width="2.8347" stroke-linecap="round" stroke-linejoin="round" stroke-miterlimit="10" points="
				155.902,403.937 166.533,414.568 177.162,403.937 			"/>
		</g>
		
			<line fill="none" stroke="#FFFFFF" stroke-width="2.8347" stroke-linecap="round" stroke-linejoin="round" stroke-miterlimit="10" x1="166.533" y1="414.568" x2="166.533" y2="394.523"/>
		<text transform="matrix(1 0 0 1 320.4629 383.0542)" fill="#FFFFFF" font-family="'Nudista-SemiBold'" font-size="24">NOSE</text>
		<g>
			
				<polyline fill="none" stroke="#FFFFFF" stroke-width="2.8347" stroke-linecap="round" stroke-linejoin="round" stroke-miterlimit="10" points="
				361.413,405.154 350.784,394.523 340.153,405.154 			"/>
		</g>
		
			<line fill="none" stroke="#FFFFFF" stroke-width="2.8347" stroke-linecap="round" stroke-linejoin="round" stroke-miterlimit="10" x1="350.784" y1="394.523" x2="350.784" y2="414.568"/>
	</g>
	<g opacity="0.25">
		<path fill="#FFFFFF" d="M979.963,590.201l-45.108-45.09c20.188-20.195,36.035-43.701,47.1-69.863
			c11.451-27.072,17.257-55.844,17.257-85.52c0-29.656-5.804-58.412-17.252-85.471c-11.062-26.152-26.906-49.646-47.09-69.832
			l45.1-45.098c26.02,26.021,46.452,56.328,60.73,90.08c14.792,34.963,22.292,72.08,22.292,110.32
			c0,38.258-7.501,75.391-22.296,110.365C1026.417,533.853,1005.983,564.169,979.963,590.201z"/>
	</g>
	
		<line fill="none" stroke="#FFFFFF" stroke-width="7.0866" stroke-miterlimit="10" x1="935.432" y1="389.765" x2="967.322" y2="389.765"/>
	
		<line fill="none" stroke="#FFFFFF" stroke-width="7.0866" stroke-miterlimit="10" x1="889.777" y1="279.527" x2="912.326" y2="256.976"/>
	
		<line fill="none" stroke="#FFFFFF" stroke-width="7.0866" stroke-miterlimit="10" x1="889.77" y1="500.013" x2="912.319" y2="522.562"/>
	
		<line fill="none" stroke="#FFFFFF" stroke-width="7.0866" stroke-miterlimit="10" x1="923.096" y1="328.865" x2="952.559" y2="316.662"/>
	
		<line fill="none" stroke="#FFFFFF" stroke-width="7.0866" stroke-miterlimit="10" x1="923.774" y1="448.425" x2="953.238" y2="460.63"/>
	
		<line fill="none" stroke="#FFFFFF" stroke-width="5.282" stroke-miterlimit="10" x1="946.125" y1="355.359" x2="963.501" y2="351.902"/>
	
		<line fill="none" stroke="#FFFFFF" stroke-width="5.282" stroke-miterlimit="10" x1="946.124" y1="424.128" x2="963.5" y2="427.585"/>
	
		<line fill="none" stroke="#FFFFFF" stroke-width="5.282" stroke-miterlimit="10" x1="920.518" y1="294.61" x2="935.249" y2="284.767"/>
	
		<line fill="none" stroke="#FFFFFF" stroke-width="5.282" stroke-miterlimit="10" x1="920.512" y1="484.916" x2="935.244" y2="494.759"/>
	<polygon fill="#FFFFFF" points="1062.991,389.728 999.211,407.445 999.211,372.011 	"/>
	<g>
		<text transform="matrix(1 0 0 1 477.3711 543.0151)" fill="#FFFFFF" font-family="'Nudista-Medium'" font-size="36">0.00</text>
		
			<rect x="447.161" y="506.693" fill="none" stroke="#FFFFFF" stroke-width="1.9842" stroke-linecap="round" stroke-linejoin="round" stroke-miterlimit="10" width="119.767" height="49.607"/>
		<g>
			<path fill="#FFFFFF" d="M427.317,556.3l9.922-19.844h-19.842L427.317,556.3z M427.317,549.96l-5.334-10.668h10.669
				L427.317,549.96z"/>
			<path fill="#FFFFFF" d="M427.317,506.693l-9.92,19.844h19.842L427.317,506.693z M427.317,513.033l5.335,10.668h-10.669
				L427.317,513.033z"/>
		</g>
	</g>
	<text transform="matrix(1 0 0 1 134.3193 344.0562)" fill="#FFFFFF" font-family="'Nudista-Medium'" font-size="36">-0.2</text>
	<text transform="matrix(1 0 0 1 321.1074 344.0562)" fill="#FFFFFF" font-family="'Nudista-Medium'" font-size="36">0.2</text>
	<text transform="matrix(1 0 0 1 232.1641 344.0562)" fill="#FFFFFF" font-family="'Nudista-Medium'" font-size="36">0.0</text>
	<text transform="matrix(1 0 0 1 42.1855 263.3921)" fill="#FFFFFF" font-family="'Nudista-Medium'" font-size="48">VJ</text>
	<polygon fill="#FFFFFF" points="258.66,272.836 240.943,209.056 276.377,209.056 	"/>
	
		<path fill="none" stroke="#FFFFFF" stroke-width="2.8347" stroke-linecap="round" stroke-linejoin="round" stroke-miterlimit="10" d="
		M350.786,223.23h-184.25c-13.697,0-24.803,11.104-24.803,24.803s11.105,24.804,24.803,24.804h184.25
		c13.697,0,24.803-11.104,24.803-24.804S364.483,223.23,350.786,223.23z"/>
	<polygon fill="#FFFFFF" points="345.826,308.27 347.242,308.27 348.66,308.27 348.66,297.639 348.66,287.01 347.242,287.01 
		345.826,287.01 345.826,297.639 	"/>
	<polygon fill="#FFFFFF" points="255.473,308.27 256.889,308.27 258.307,308.27 258.307,297.639 258.307,287.01 256.889,287.01 
		255.473,287.01 255.473,297.639 	"/>
	<polygon fill="#FFFFFF" points="278.061,301.182 279.477,301.182 280.896,301.182 280.896,294.096 280.896,287.01 279.477,287.01 
		278.061,287.01 278.061,294.096 	"/>
	<polygon fill="#FFFFFF" points="300.649,308.27 302.066,308.27 303.484,308.27 303.484,297.639 303.484,287.01 302.066,287.01 
		300.649,287.01 300.649,297.639 	"/>
	<polygon fill="#FFFFFF" points="323.237,301.182 324.654,301.182 326.072,301.182 326.072,294.096 326.072,287.01 324.654,287.01 
		323.237,287.01 323.237,294.096 	"/>
	<polygon fill="#FFFFFF" points="210.295,308.27 211.713,308.27 213.131,308.27 213.131,297.639 213.131,287.01 211.713,287.01 
		210.295,287.01 210.295,297.639 	"/>
	<polygon fill="#FFFFFF" points="232.885,301.182 234.302,301.182 235.719,301.182 235.719,294.096 235.719,287.01 234.302,287.01 
		232.885,287.01 232.885,294.096 	"/>
	<polygon fill="#FFFFFF" points="187.707,301.182 189.125,301.182 190.543,301.182 190.543,294.096 190.543,287.01 189.125,287.01 
		187.707,287.01 187.707,294.096 	"/>
	<polygon fill="#FFFFFF" points="165.119,308.27 166.536,308.27 167.954,308.27 167.954,297.639 167.954,287.01 166.536,287.01 
		165.119,287.01 165.119,297.639 	"/>
	
		<line fill="none" stroke="#FFFFFF" stroke-width="5.6693" stroke-linecap="round" stroke-linejoin="round" stroke-miterlimit="10" x1="258.66" y1="173.625" x2="258.66" y2="209.056"/>
	<g>
		<text transform="matrix(1 0 0 1 477.3711 259.5522)" fill="#FFFFFF" font-family="'Nudista-Medium'" font-size="36">0.00</text>
		
			<rect x="447.161" y="223.23" fill="none" stroke="#FFFFFF" stroke-width="1.9842" stroke-linecap="round" stroke-linejoin="round" stroke-miterlimit="10" width="119.767" height="49.606"/>
		<g>
			<path fill="#FFFFFF" d="M427.317,272.836l9.922-19.843h-19.842L427.317,272.836z M427.317,266.498l-5.334-10.67h10.669
				L427.317,266.498z"/>
			<path fill="#FFFFFF" d="M427.317,223.23l-9.92,19.842h19.842L427.317,223.23z M427.317,229.568l5.335,10.67h-10.669
				L427.317,229.568z"/>
		</g>
	</g>
</g>
</svg>
