<?xml version="1.0" encoding="utf-8"?>
<!-- Generator: Adobe Illustrator 16.0.0, SVG Export Plug-In . SVG Version: 6.00 Build 0)  -->
<!DOCTYPE svg PUBLIC "-//W3C//DTD SVG 1.1//EN" "http://www.w3.org/Graphics/SVG/1.1/DTD/svg11.dtd">
<svg version="1.1" xmlns="http://www.w3.org/2000/svg" xmlns:xlink="http://www.w3.org/1999/xlink" x="0px" y="0px"
	 width="1133.86px" height="637.795px" viewBox="0 0 1133.86 637.795" enable-background="new 0 0 1133.86 637.795"
	 xml:space="preserve">
<g id="Frame">
	
		<path fill="none" stroke="#FFFFFF" stroke-width="5.6693" stroke-linecap="round" stroke-linejoin="round" stroke-miterlimit="10" d="
		M1133.858,566.932c0,39.139-31.728,70.866-70.866,70.866H70.867C31.729,637.798,0,606.071,0,566.932V70.866
		C0,31.728,31.729,0,70.867,0h992.125c39.139,0,70.866,31.728,70.866,70.866V566.932z"/>
</g>
<g id="Artwork">
	<g>
		
			<path fill="none" stroke="#FFFFFF" stroke-width="5.6693" stroke-linecap="round" stroke-linejoin="round" stroke-miterlimit="10" d="
			M70.866,0c39.143,0,70.867,31.729,70.867,70.856c0,39.146-31.73,70.876-70.867,70.876S0,110.003,0,70.856"/>
	</g>
	<g>
		
			<path fill="none" stroke="#FFFFFF" stroke-width="5.6693" stroke-linecap="round" stroke-linejoin="round" stroke-miterlimit="10" d="
			M41.42,99.898c-3.751-3.807-6.693-8.25-8.746-13.214c-2.057-4.964-3.119-10.186-3.159-15.532
			c-0.042-5.528,1.021-10.951,3.157-16.106c2.135-5.157,5.217-9.741,9.156-13.62c3.81-3.755,8.253-6.697,13.217-8.752
			c4.961-2.056,10.186-3.117,15.528-3.158"/>
		
			<path fill="none" stroke="#FFFFFF" stroke-width="5.6693" stroke-linecap="round" stroke-linejoin="round" stroke-miterlimit="10" d="
			M100.303,41.831c3.756,3.808,6.696,8.252,8.752,13.213c2.057,4.964,3.116,10.186,3.155,15.534
			c0.043,5.53-1.019,10.95-3.155,16.106c-2.135,5.154-5.219,9.741-9.158,13.621c-3.809,3.754-8.248,6.695-13.214,8.751
			c-4.964,2.056-10.186,3.116-15.532,3.156"/>
		<polygon fill="#FFFFFF" points="107.264,34.87 100.303,41.831 93.343,48.789 89.168,30.695 		"/>
		<polygon fill="#FFFFFF" points="34.459,106.856 41.42,99.898 48.379,92.938 52.556,111.03 		"/>
	</g>
	
		<line fill="none" stroke="#FFFFFF" stroke-width="5.6693" stroke-linecap="round" stroke-linejoin="round" stroke-miterlimit="10" x1="70.865" y1="49.607" x2="70.865" y2="92.126"/>
	<g>
		
			<text transform="matrix(1 0 0 1 212.5981 93.9062)" fill="#FFFFFF" font-family="'Nudista-Medium'" font-size="72" letter-spacing="1">ROLL</text>
	</g>
	<g>
		
			<path fill="none" stroke="#FFFFFF" stroke-width="2.8346" stroke-linecap="round" stroke-linejoin="round" stroke-miterlimit="10" d="
			M1062.988,106.3c-19.568,0-35.433-15.864-35.433-35.438c0-19.563,15.864-35.428,35.433-35.428
			c19.571,0,35.434,15.864,35.434,35.428C1098.422,90.436,1082.557,106.3,1062.988,106.3z"/>
	</g>
	<g opacity="0.25">
		<path fill="#FFFFFF" d="M1062.988,88.583c-9.784,0-17.716-7.932-17.716-17.719c0-9.781,7.932-17.713,17.716-17.713
			c9.786,0,17.717,7.932,17.717,17.713C1080.705,80.651,1072.772,88.583,1062.988,88.583z"/>
	</g>
	<text transform="matrix(1 0 0 1 969.1709 436.6577)" fill="#FFFFFF" font-family="'Nudista-Medium'" font-size="48">30°</text>
	<text transform="matrix(1 0 0 1 722.0098 436.6577)" fill="#FFFFFF" font-family="'Nudista-Medium'" font-size="48">-30°</text>
	<text transform="matrix(1 0 0 1 869.5674 395.1304)" fill="#FFFFFF" font-family="'Nudista-Medium'" font-size="48">0°</text>
	<text transform="matrix(1 0 0 1 41.7275 546.8569)" fill="#FFFFFF" font-family="'Nudista-Medium'" font-size="48">SP</text>
	
		<rect x="141.731" y="506.693" fill="none" stroke="#FFFFFF" stroke-width="1.9843" stroke-linecap="round" stroke-linejoin="round" stroke-miterlimit="10" width="49.605" height="49.607"/>
	<text transform="matrix(1 0 0 1 907.085 517.4194)" fill="#EF4136" font-family="'Nudista-SemiBold'" font-size="60">5.0°</text>
	<text transform="matrix(1 0 0 1 753.4482 517.4194)" fill="#FFFFFF" font-family="'Nudista-SemiBold'" font-size="60">0.0°</text>
	<path opacity="0.25" fill="#FFFFFF" d="M885.79,214.708c-19.12,0-37.96,1.875-56.39,5.598c-18.43,3.725-36.451,9.297-53.933,16.693
		c-16.876,7.139-32.891,15.816-47.938,25.963c-15.049,10.145-29.131,21.758-42.141,34.768l45.098,45.1
		c10.092-10.092,21.012-19.098,32.678-26.965s24.078-14.594,37.154-20.125c13.529-5.725,27.483-10.037,41.762-12.92
		c14.278-2.881,28.882-4.332,43.71-4.332c14.837,0,29.448,1.451,43.735,4.334l12.678-62.514
		C923.766,216.583,904.919,214.708,885.79,214.708z"/>
	<path opacity="0.66" fill="#FFFFFF" d="M1044.105,262.966c-15.053-10.146-31.071-18.824-47.95-25.963
		c-17.488-7.396-35.515-12.971-53.952-16.695l-12.678,62.514c14.287,2.883,28.248,7.197,41.783,12.924
		c13.081,5.531,25.498,12.26,37.168,20.127c11.672,7.869,22.598,16.877,32.696,26.973l45.09-45.109
		C1073.246,284.726,1059.158,273.113,1044.105,262.966z"/>
	
		<line fill="none" stroke="#FFFFFF" stroke-width="7.0866" stroke-miterlimit="10" x1="885.825" y1="342.267" x2="885.825" y2="310.376"/>
	
		<line fill="none" stroke="#FFFFFF" stroke-width="7.0866" stroke-miterlimit="10" x1="775.588" y1="387.921" x2="753.038" y2="365.373"/>
	
		<line fill="none" stroke="#FFFFFF" stroke-width="7.0866" stroke-miterlimit="10" x1="996.073" y1="387.929" x2="1018.624" y2="365.38"/>
	
		<line fill="none" stroke="#FFFFFF" stroke-width="7.0866" stroke-miterlimit="10" x1="824.927" y1="354.603" x2="812.722" y2="325.14"/>
	
		<line fill="none" stroke="#FFFFFF" stroke-width="7.0866" stroke-miterlimit="10" x1="944.488" y1="353.925" x2="956.69" y2="324.462"/>
	
		<line fill="none" stroke="#FFFFFF" stroke-width="5.282" stroke-miterlimit="10" x1="851.419" y1="331.574" x2="847.963" y2="314.199"/>
	
		<line fill="none" stroke="#FFFFFF" stroke-width="5.282" stroke-miterlimit="10" x1="920.19" y1="331.576" x2="923.646" y2="314.199"/>
	
		<line fill="none" stroke="#FFFFFF" stroke-width="5.282" stroke-miterlimit="10" x1="790.671" y1="357.181" x2="780.826" y2="342.451"/>
	
		<line fill="none" stroke="#FFFFFF" stroke-width="5.282" stroke-miterlimit="10" x1="980.976" y1="357.187" x2="990.819" y2="342.455"/>
	<polygon fill="#FFFFFF" points="942.203,220.308 947.138,286.318 912.385,279.406 	"/>
	<g>
		<g>
			<text transform="matrix(1 0 0 1 137.1348 383.0532)" fill="#FFFFFF" font-family="'Nudista-SemiBold'" font-size="24">PORT</text>
			<g>
				
					<polyline fill="none" stroke="#FFFFFF" stroke-width="2.8347" stroke-linecap="round" stroke-linejoin="round" stroke-miterlimit="10" points="
					155.902,403.937 166.533,414.568 177.162,403.937 				"/>
			</g>
			
				<line fill="none" stroke="#FFFFFF" stroke-width="2.8347" stroke-linecap="round" stroke-linejoin="round" stroke-miterlimit="10" x1="166.533" y1="414.568" x2="166.533" y2="394.523"/>
			<text transform="matrix(1 0 0 1 321.0869 383.0532)" fill="#FFFFFF" font-family="'Nudista-SemiBold'" font-size="24">STBD</text>
			<g>
				
					<polyline fill="none" stroke="#FFFFFF" stroke-width="2.8347" stroke-linecap="round" stroke-linejoin="round" stroke-miterlimit="10" points="
					361.413,405.154 350.784,394.523 340.153,405.154 				"/>
			</g>
			
				<line fill="none" stroke="#FFFFFF" stroke-width="2.8347" stroke-linecap="round" stroke-linejoin="round" stroke-miterlimit="10" x1="350.784" y1="394.523" x2="350.784" y2="414.568"/>
		</g>
		<text transform="matrix(1 0 0 1 134.3193 344.0552)" fill="#FFFFFF" font-family="'Nudista-Medium'" font-size="36">-0.5</text>
		<text transform="matrix(1 0 0 1 321.1074 344.0552)" fill="#FFFFFF" font-family="'Nudista-Medium'" font-size="36">0.5</text>
		<text transform="matrix(1 0 0 1 232.1641 344.0552)" fill="#FFFFFF" font-family="'Nudista-Medium'" font-size="36">0.0</text>
		<text transform="matrix(1 0 0 1 42.1855 263.3921)" fill="#FFFFFF" font-family="'Nudista-Medium'" font-size="48">VJ</text>
		<polygon fill="#FFFFFF" points="258.66,272.835 240.943,209.056 276.377,209.056 		"/>
		
			<path fill="none" stroke="#FFFFFF" stroke-width="2.8347" stroke-linecap="round" stroke-linejoin="round" stroke-miterlimit="10" d="
			M350.786,223.23h-184.25c-13.697,0-24.803,11.104-24.803,24.803s11.105,24.803,24.803,24.803h184.25
			c13.697,0,24.803-11.104,24.803-24.803S364.483,223.23,350.786,223.23z"/>
		<polygon fill="#FFFFFF" points="345.826,308.269 347.242,308.269 348.66,308.269 348.66,297.638 348.66,287.009 347.242,287.009 
			345.826,287.009 345.826,297.638 		"/>
		<polygon fill="#FFFFFF" points="255.473,308.269 256.889,308.269 258.307,308.269 258.307,297.638 258.307,287.009 
			256.889,287.009 255.473,287.009 255.473,297.638 		"/>
		<polygon fill="#FFFFFF" points="278.061,301.181 279.477,301.181 280.896,301.181 280.896,294.095 280.896,287.009 
			279.477,287.009 278.061,287.009 278.061,294.095 		"/>
		<polygon fill="#FFFFFF" points="300.649,308.269 302.066,308.269 303.484,308.269 303.484,297.638 303.484,287.009 
			302.066,287.009 300.649,287.009 300.649,297.638 		"/>
		<polygon fill="#FFFFFF" points="323.237,301.181 324.654,301.181 326.072,301.181 326.072,294.095 326.072,287.009 
			324.654,287.009 323.237,287.009 323.237,294.095 		"/>
		<polygon fill="#FFFFFF" points="210.295,308.269 211.713,308.269 213.131,308.269 213.131,297.638 213.131,287.009 
			211.713,287.009 210.295,287.009 210.295,297.638 		"/>
		<polygon fill="#FFFFFF" points="232.885,301.181 234.302,301.181 235.719,301.181 235.719,294.095 235.719,287.009 
			234.302,287.009 232.885,287.009 232.885,294.095 		"/>
		<polygon fill="#FFFFFF" points="187.707,301.181 189.125,301.181 190.543,301.181 190.543,294.095 190.543,287.009 
			189.125,287.009 187.707,287.009 187.707,294.095 		"/>
		<polygon fill="#FFFFFF" points="165.119,308.269 166.536,308.269 167.954,308.269 167.954,297.638 167.954,287.009 
			166.536,287.009 165.119,287.009 165.119,297.638 		"/>
		
			<line fill="none" stroke="#FFFFFF" stroke-width="5.6693" stroke-linecap="round" stroke-linejoin="round" stroke-miterlimit="10" x1="258.66" y1="173.625" x2="258.66" y2="209.056"/>
		<g>
			<text transform="matrix(1 0 0 1 477.3711 259.5513)" fill="#FFFFFF" font-family="'Nudista-Medium'" font-size="36">0.00</text>
			
				<rect x="447.161" y="223.23" fill="none" stroke="#FFFFFF" stroke-width="1.9842" stroke-linecap="round" stroke-linejoin="round" stroke-miterlimit="10" width="119.767" height="49.605"/>
			<g>
				<path fill="#FFFFFF" d="M427.317,272.835l9.922-19.842h-19.842L427.317,272.835z M427.317,266.498l-5.334-10.67h10.669
					L427.317,266.498z"/>
				<path fill="#FFFFFF" d="M427.317,223.23l-9.92,19.842h19.842L427.317,223.23z M427.317,229.568l5.335,10.67h-10.669
					L427.317,229.568z"/>
			</g>
		</g>
	</g>
	<g>
		<text transform="matrix(1 0 0 1 477.3711 543.0151)" fill="#FFFFFF" font-family="'Nudista-Medium'" font-size="36">0.00</text>
		
			<rect x="447.161" y="506.693" fill="none" stroke="#FFFFFF" stroke-width="1.9842" stroke-linecap="round" stroke-linejoin="round" stroke-miterlimit="10" width="119.767" height="49.607"/>
		<g>
			<path fill="#FFFFFF" d="M427.317,556.3l9.922-19.844h-19.842L427.317,556.3z M427.317,549.96l-5.334-10.67h10.669L427.317,549.96
				z"/>
			<path fill="#FFFFFF" d="M427.317,506.693l-9.92,19.842h19.842L427.317,506.693z M427.317,513.031l5.335,10.67h-10.669
				L427.317,513.031z"/>
		</g>
	</g>
</g>
</svg>
