<?xml version="1.0" encoding="utf-8"?>
<!-- Generator: Adobe Illustrator 16.0.0, SVG Export Plug-In . SVG Version: 6.00 Build 0)  -->
<!DOCTYPE svg PUBLIC "-//W3C//DTD SVG 1.1//EN" "http://www.w3.org/Graphics/SVG/1.1/DTD/svg11.dtd">
<svg version="1.1" xmlns="http://www.w3.org/2000/svg" xmlns:xlink="http://www.w3.org/1999/xlink" x="0px" y="0px"
	 width="1133.86px" height="956.69px" viewBox="0 0 1133.86 956.69" enable-background="new 0 0 1133.86 956.69"
	 xml:space="preserve">
<g id="Frame">
	
		<path fill="none" stroke="#FFFFFF" stroke-width="5.6693" stroke-linecap="round" stroke-linejoin="round" stroke-miterlimit="10" d="
		M1133.858,885.827c0,39.139-31.728,70.866-70.866,70.866H70.867C31.729,956.693,0,924.966,0,885.827V70.867
		C0,31.729,31.729,0,70.867,0h992.125c39.139,0,70.866,31.728,70.866,70.866V885.827z"/>
</g>
<g id="Artwork">
	<g>
		
			<path fill="none" stroke="#FFFFFF" stroke-width="5.6693" stroke-linecap="round" stroke-linejoin="round" stroke-miterlimit="10" d="
			M70.866,0c39.142,0,70.866,31.729,70.866,70.856c0,39.146-31.729,70.876-70.866,70.876S0,110.003,0,70.856"/>
	</g>
	<g>
		<path fill="#FFFFFF" d="M70.865,25.584c-25.002,0-45.276,20.272-45.276,45.276c0,25.004,20.273,45.273,45.277,45.273
			s45.273-20.27,45.273-45.273C116.14,45.856,95.869,25.584,70.865,25.584z M70.867,112.2c-22.795,0-41.341-18.544-41.341-41.339
			c0-22.794,18.546-41.337,41.339-41.337s41.338,18.543,41.338,41.337C112.204,93.656,93.66,112.2,70.867,112.2z"/>
		<rect x="68.897" y="27.554" fill="#FFFFFF" width="3.938" height="9.844"/>
		<rect x="104.333" y="68.893" fill="#FFFFFF" width="9.843" height="3.939"/>
		<rect x="27.561" y="68.893" fill="#FFFFFF" width="9.842" height="3.939"/>
		<rect x="68.897" y="104.325" fill="#FFFFFF" width="3.938" height="9.844"/>
		<path fill="#FFFFFF" d="M63.906,63.901L47.202,94.523l30.623-16.7L94.53,47.199L63.906,63.901z M74.921,74.921l-8.112-8.119
			l17.854-9.738L74.921,74.921z"/>
	</g>
	<g>
		
			<text transform="matrix(1 0 0 1 212.5981 93.9062)" fill="#FFFFFF" font-family="'Nudista-Medium'" font-size="72" letter-spacing="1">Heading</text>
	</g>
	<text transform="matrix(1 0 0 1 41.7275 876.3848)" fill="#FFFFFF" font-family="'Nudista-Medium'" font-size="48">SP</text>
	<text transform="matrix(1 0 0 1 486.3369 872.5439)" fill="#FFFFFF" font-family="'Nudista-Medium'" font-size="36">10.0</text>
	
		<rect x="141.732" y="836.221" fill="none" stroke="#FFFFFF" stroke-width="2.8347" stroke-linecap="round" stroke-linejoin="round" stroke-miterlimit="10" width="49.607" height="49.607"/>
	<g>
		
			<polyline fill="none" stroke="#FFFFFF" stroke-width="2.8347" stroke-linecap="round" stroke-linejoin="round" stroke-miterlimit="10" points="
			179.69,852.256 162.151,869.793 153.381,861.02 		"/>
	</g>
	<g>
		
			<path fill="none" stroke="#FFFFFF" stroke-width="2.8346" stroke-linecap="round" stroke-linejoin="round" stroke-miterlimit="10" d="
			M1062.992,106.299c-19.568,0-35.434-15.864-35.434-35.438c0-19.563,15.865-35.428,35.434-35.428
			c19.57,0,35.434,15.864,35.434,35.428C1098.426,90.435,1082.561,106.299,1062.992,106.299z"/>
	</g>
	<g>
		<path fill="#00A651" d="M1062.992,88.582c-9.785,0-17.717-7.932-17.717-17.719c0-9.781,7.932-17.713,17.717-17.713
			s17.717,7.932,17.717,17.713C1080.709,80.65,1072.775,88.582,1062.992,88.582z"/>
	</g>
	<text transform="matrix(1 0 0 1 360.0801 594.8936)" fill="#FFFFFF" font-family="'Nudista-SemiBold'" font-size="60">120.0°</text>
	<text transform="matrix(1 0 0 1 345.9805 541.8721)" fill="#EF4136" font-family="'Nudista-SemiBold'" font-size="60">300.0°</text>
	<text transform="matrix(1 0 0 1 804.0117 415.4492)" fill="#FFFFFF" font-family="'Nudista-Medium'" font-size="36">0°</text>
	<text transform="matrix(1 0 0 1 802.9014 314.1191)" fill="#FFFFFF" font-family="'Nudista-SemiBold'" font-size="36">N</text>
	<text transform="matrix(1 0 0 1 791.333 671.4492)" fill="#FFFFFF" font-family="'Nudista-Medium'" font-size="36">180°</text>
	<text transform="matrix(1 0 0 1 920.0469 560.7324)" fill="#FFFFFF" font-family="'Nudista-Medium'" font-size="36">90°</text>
	<text transform="matrix(1 0 0 1 653.666 560.7324)" fill="#FFFFFF" font-family="'Nudista-Medium'" font-size="36">270°</text>
	
		<polygon fill="#FFFFFF" stroke="#FFFFFF" stroke-width="2.8347" stroke-linecap="round" stroke-linejoin="round" stroke-miterlimit="10" points="
		920.189,654.443 802.432,561.74 827.488,536.684 	"/>
	
		<polygon fill="none" stroke="#FFFFFF" stroke-width="2.8347" stroke-linecap="round" stroke-linejoin="round" stroke-miterlimit="10" points="
		709.732,443.982 827.488,536.684 802.432,561.74 	"/>
	
		<line fill="none" stroke="#FFFFFF" stroke-width="2.8347" stroke-linecap="round" stroke-linejoin="round" stroke-miterlimit="10" x1="814.961" y1="336.615" x2="814.961" y2="372.048"/>
	
		<line fill="none" stroke="#FFFFFF" stroke-width="2.8347" stroke-linecap="round" stroke-linejoin="round" stroke-miterlimit="10" x1="814.961" y1="726.379" x2="814.961" y2="761.811"/>
	
		<line fill="none" stroke="#FFFFFF" stroke-width="2.8347" stroke-linecap="round" stroke-linejoin="round" stroke-miterlimit="10" x1="664.631" y1="699.543" x2="679.666" y2="684.51"/>
	
		<line fill="none" stroke="#FFFFFF" stroke-width="2.8347" stroke-linecap="round" stroke-linejoin="round" stroke-miterlimit="10" x1="950.258" y1="413.917" x2="965.291" y2="398.884"/>
	
		<line fill="none" stroke="#FFFFFF" stroke-width="2.8347" stroke-linecap="round" stroke-linejoin="round" stroke-miterlimit="10" x1="965.291" y1="699.543" x2="950.256" y2="684.508"/>
	
		<line fill="none" stroke="#FFFFFF" stroke-width="2.8347" stroke-linecap="round" stroke-linejoin="round" stroke-miterlimit="10" x1="679.664" y1="413.917" x2="664.631" y2="398.883"/>
	
		<line fill="none" stroke="#FFFFFF" stroke-width="2.8347" stroke-linecap="round" stroke-linejoin="round" stroke-miterlimit="10" x1="733.604" y1="745.629" x2="741.74" y2="725.984"/>
	
		<line fill="none" stroke="#FFFFFF" stroke-width="2.8347" stroke-linecap="round" stroke-linejoin="round" stroke-miterlimit="10" x1="888.182" y1="372.44" x2="896.318" y2="352.798"/>
	
		<line fill="none" stroke="#FFFFFF" stroke-width="2.8347" stroke-linecap="round" stroke-linejoin="round" stroke-miterlimit="10" x1="896.318" y1="745.627" x2="888.182" y2="725.984"/>
	
		<line fill="none" stroke="#FFFFFF" stroke-width="2.8347" stroke-linecap="round" stroke-linejoin="round" stroke-miterlimit="10" x1="741.738" y1="372.44" x2="733.604" y2="352.798"/>
	
		<line fill="none" stroke="#FFFFFF" stroke-width="2.8347" stroke-linecap="round" stroke-linejoin="round" stroke-miterlimit="10" x1="1011.375" y1="630.57" x2="991.732" y2="622.434"/>
	
		<line fill="none" stroke="#FFFFFF" stroke-width="2.8347" stroke-linecap="round" stroke-linejoin="round" stroke-miterlimit="10" x1="638.188" y1="475.992" x2="618.545" y2="467.855"/>
	
		<line fill="none" stroke="#FFFFFF" stroke-width="2.8347" stroke-linecap="round" stroke-linejoin="round" stroke-miterlimit="10" x1="1027.561" y1="549.213" x2="992.125" y2="549.213"/>
	
		<line fill="none" stroke="#FFFFFF" stroke-width="2.8347" stroke-linecap="round" stroke-linejoin="round" stroke-miterlimit="10" x1="637.797" y1="549.213" x2="602.361" y2="549.213"/>
	
		<line fill="none" stroke="#FFFFFF" stroke-width="2.8347" stroke-linecap="round" stroke-linejoin="round" stroke-miterlimit="10" x1="1011.377" y1="467.855" x2="991.732" y2="475.991"/>
	
		<line fill="none" stroke="#FFFFFF" stroke-width="2.8347" stroke-linecap="round" stroke-linejoin="round" stroke-miterlimit="10" x1="638.189" y1="622.436" x2="618.545" y2="630.57"/>
	
		<path fill="none" stroke="#FFFFFF" stroke-width="2.8347" stroke-linecap="round" stroke-linejoin="round" stroke-miterlimit="10" d="
		M839.732,302.411c-0.641,13.128-11.486,23.575-24.771,23.575c-13.287,0-24.133-10.447-24.771-23.575
		c-125.354,12.431-223.261,118.18-223.261,246.802c0,136.984,111.048,248.031,248.033,248.031
		c136.982,0,248.031-111.047,248.031-248.031C1062.992,420.591,965.084,314.841,839.732,302.411z"/>
	
		<path fill="none" stroke="#FFFFFF" stroke-width="2.8347" stroke-linecap="round" stroke-linejoin="round" stroke-miterlimit="10" d="
		M814.961,276.379c-13.699,0-24.803,11.104-24.803,24.803c0,0.412,0.01,0.821,0.031,1.229c0.639,13.128,11.484,23.575,24.771,23.575
		c13.285,0,24.131-10.447,24.771-23.575c0.02-0.407,0.031-0.816,0.031-1.229C839.764,287.483,828.658,276.379,814.961,276.379z"/>
	
		<rect x="447.162" y="836.221" fill="none" stroke="#FFFFFF" stroke-width="1.9842" stroke-linecap="round" stroke-linejoin="round" stroke-miterlimit="10" width="119.766" height="49.607"/>
	<g>
		<path fill="#FFFFFF" d="M427.318,885.828l9.922-19.844h-19.842L427.318,885.828z M427.318,879.488l-5.333-10.67h10.669
			L427.318,879.488z"/>
		<path fill="#FFFFFF" d="M427.318,836.221l-9.919,19.842h19.842L427.318,836.221z M427.318,842.559l5.335,10.67h-10.669
			L427.318,842.559z"/>
	</g>
	
		<polyline fill="none" stroke="#FFFFFF" stroke-width="2.8347" stroke-linecap="round" stroke-linejoin="round" stroke-miterlimit="10" points="
		152.065,400.657 159.016,402.04 160.397,395.089 	"/>
	
		<path fill="none" stroke="#FFFFFF" stroke-width="2.8347" stroke-linecap="round" stroke-linejoin="round" stroke-miterlimit="10" d="
		M159.016,402.04c-1.924-1.924-3.113-4.582-3.113-7.517c0-2.936,1.189-5.593,3.113-7.516c1.924-1.924,4.581-3.114,7.516-3.114
		c2.936,0,5.594,1.19,7.517,3.114c1.924,1.923,3.114,4.581,3.114,7.516"/>
	
		<polyline fill="none" stroke="#FFFFFF" stroke-width="2.8347" stroke-linecap="round" stroke-linejoin="round" stroke-miterlimit="10" points="
		365.25,400.657 358.299,402.04 356.918,395.089 	"/>
	
		<path fill="none" stroke="#FFFFFF" stroke-width="2.8347" stroke-linecap="round" stroke-linejoin="round" stroke-miterlimit="10" d="
		M358.299,402.04c1.924-1.924,3.113-4.582,3.113-7.517c0-2.936-1.189-5.593-3.113-7.516c-1.924-1.924-4.581-3.114-7.516-3.114
		c-2.936,0-5.594,1.19-7.517,3.114c-1.924,1.923-3.114,4.581-3.114,7.516"/>
	<g>
		<text transform="matrix(1 0 0 1 136.2334 372.4238)" fill="#FFFFFF" font-family="'Nudista-SemiBold'" font-size="24">TURN</text>
		<text transform="matrix(1 0 0 1 320.4854 372.4238)" fill="#FFFFFF" font-family="'Nudista-SemiBold'" font-size="24">TURN</text>
	</g>
	<text transform="matrix(1 0 0 1 138.4414 333.4258)" fill="#FFFFFF" font-family="'Nudista-Medium'" font-size="36">-0.1</text>
	<text transform="matrix(1 0 0 1 325.2285 333.4258)" fill="#FFFFFF" font-family="'Nudista-Medium'" font-size="36">0.1</text>
	<text transform="matrix(1 0 0 1 232.1641 333.4258)" fill="#FFFFFF" font-family="'Nudista-Medium'" font-size="36">0.0</text>
	<text transform="matrix(1 0 0 1 42.1855 252.7617)" fill="#FFFFFF" font-family="'Nudista-Medium'" font-size="48">VJ</text>
	<polygon fill="#FFFFFF" points="258.659,262.206 240.942,198.426 276.375,198.426 	"/>
	
		<path fill="none" stroke="#FFFFFF" stroke-width="2.8347" stroke-linecap="round" stroke-linejoin="round" stroke-miterlimit="10" d="
		M350.786,212.599h-184.25c-13.697,0-24.803,11.104-24.803,24.803c0,13.699,11.105,24.804,24.803,24.804h184.25
		c13.697,0,24.803-11.105,24.803-24.804C375.588,223.704,364.483,212.599,350.786,212.599z"/>
	<polygon fill="#FFFFFF" points="345.825,297.64 347.241,297.64 348.659,297.64 348.659,287.009 348.659,276.38 347.241,276.38 
		345.825,276.38 345.825,287.009 	"/>
	<polygon fill="#FFFFFF" points="255.471,297.64 256.887,297.64 258.305,297.64 258.305,287.009 258.305,276.38 256.887,276.38 
		255.471,276.38 255.471,287.009 	"/>
	<polygon fill="#FFFFFF" points="278.059,290.552 279.477,290.552 280.895,290.552 280.895,283.466 280.895,276.38 279.477,276.38 
		278.059,276.38 278.059,283.466 	"/>
	<polygon fill="#FFFFFF" points="300.649,297.64 302.065,297.64 303.483,297.64 303.483,287.009 303.483,276.38 302.065,276.38 
		300.649,276.38 300.649,287.009 	"/>
	<polygon fill="#FFFFFF" points="323.237,290.552 324.653,290.552 326.071,290.552 326.071,283.466 326.071,276.38 324.653,276.38 
		323.237,276.38 323.237,283.466 	"/>
	<polygon fill="#FFFFFF" points="210.295,297.64 211.711,297.64 213.129,297.64 213.129,287.009 213.129,276.38 211.711,276.38 
		210.295,276.38 210.295,287.009 	"/>
	<polygon fill="#FFFFFF" points="232.883,290.552 234.301,290.552 235.717,290.552 235.717,283.466 235.717,276.38 234.301,276.38 
		232.883,276.38 232.883,283.466 	"/>
	<polygon fill="#FFFFFF" points="187.706,290.552 189.124,290.552 190.542,290.552 190.542,283.466 190.542,276.38 189.124,276.38 
		187.706,276.38 187.706,283.466 	"/>
	<polygon fill="#FFFFFF" points="165.118,297.64 166.536,297.64 167.954,297.64 167.954,287.009 167.954,276.38 166.536,276.38 
		165.118,276.38 165.118,287.009 	"/>
	
		<line fill="none" stroke="#FFFFFF" stroke-width="5.6693" stroke-linecap="round" stroke-linejoin="round" stroke-miterlimit="10" x1="258.659" y1="162.994" x2="258.659" y2="198.426"/>
	<text transform="matrix(1 0 0 1 477.3711 248.9219)" fill="#FFFFFF" font-family="'Nudista-Medium'" font-size="36">0.00</text>
	
		<rect x="447.161" y="212.599" fill="none" stroke="#FFFFFF" stroke-width="1.9842" stroke-linecap="round" stroke-linejoin="round" stroke-miterlimit="10" width="119.766" height="49.607"/>
	<g>
		<path fill="#FFFFFF" d="M427.317,262.206l9.922-19.843h-19.842L427.317,262.206z M427.317,255.867l-5.334-10.669h10.668
			L427.317,255.867z"/>
		<path fill="#FFFFFF" d="M427.317,212.599l-9.92,19.843h19.842L427.317,212.599z M427.317,218.938l5.334,10.669h-10.668
			L427.317,218.938z"/>
	</g>
</g>
</svg>
