<?xml version="1.0" encoding="utf-8"?>
<!-- Generator: Adobe Illustrator 16.0.0, SVG Export Plug-In . SVG Version: 6.00 Build 0)  -->
<!DOCTYPE svg PUBLIC "-//W3C//DTD SVG 1.1//EN" "http://www.w3.org/Graphics/SVG/1.1/DTD/svg11.dtd">
<svg version="1.1" xmlns="http://www.w3.org/2000/svg" xmlns:xlink="http://www.w3.org/1999/xlink" x="0px" y="0px"
	 width="1133.86px" height="956.69px" viewBox="0 0 1133.86 956.69" enable-background="new 0 0 1133.86 956.69"
	 xml:space="preserve">
<g id="Frame">
	
		<path fill="none" stroke="#FFFFFF" stroke-width="5.6693" stroke-linecap="round" stroke-linejoin="round" stroke-miterlimit="10" d="
		M1133.858,885.827c0,39.139-31.728,70.866-70.866,70.866H70.867C31.729,956.693,0,924.966,0,885.827V70.867
		C0,31.729,31.729,0,70.867,0h992.125c39.139,0,70.866,31.728,70.866,70.866V885.827z"/>
</g>
<g id="Artwork">
	<g>
		
			<path fill="none" stroke="#FFFFFF" stroke-width="5.6693" stroke-linecap="round" stroke-linejoin="round" stroke-miterlimit="10" d="
			M70.866,0c39.142,0,70.866,31.73,70.866,70.858c0,39.146-31.729,70.875-70.866,70.875S0,110.004,0,70.858"/>
	</g>
	<g>
		<rect x="27.56" y="68.897" fill="#FFFFFF" width="9.842" height="3.938"/>
		<rect x="104.329" y="68.897" fill="#FFFFFF" width="9.845" height="3.938"/>
		
			<rect x="40.617" y="100.587" transform="matrix(0.7066 -0.7076 0.7076 0.7066 -59.635 59.1615)" fill="#FFFFFF" width="1.805" height="1.804"/>
		
			<rect x="99.31" y="100.586" transform="matrix(0.7067 -0.7075 0.7075 0.7067 -42.4123 100.6682)" fill="#FFFFFF" width="1.805" height="1.806"/>
		
			<path fill="none" stroke="#FFFFFF" stroke-width="5.6693" stroke-linecap="round" stroke-linejoin="round" stroke-miterlimit="10" d="
			M40.244,101.489c-7.837-7.838-12.685-18.663-12.685-30.623c0-11.957,4.848-22.785,12.685-30.622
			c7.835-7.835,18.664-12.684,30.622-12.684s22.784,4.849,30.624,12.684c7.836,7.837,12.685,18.665,12.685,30.622
			c0,11.96-4.848,22.785-12.685,30.623"/>
		<rect x="68.899" y="27.558" fill="#FFFFFF" width="3.936" height="9.843"/>
		
			<rect x="38.803" y="96.038" transform="matrix(0.7072 -0.7071 0.7071 0.7072 -56.4918 59.6168)" fill="#FFFFFF" width="9.844" height="3.937"/>
		
			<rect x="93.088" y="41.753" transform="matrix(0.7071 -0.7072 0.7072 0.7071 -2.2079 82.1156)" fill="#FFFFFF" width="9.841" height="3.939"/>
		
			<rect x="93.086" y="96.037" transform="matrix(-0.7071 -0.7071 0.7071 -0.7071 98.0157 236.6081)" fill="#FFFFFF" width="9.845" height="3.936"/>
		
			<rect x="38.804" y="41.753" transform="matrix(-0.7071 -0.7071 0.7071 -0.7071 43.7297 105.5559)" fill="#FFFFFF" width="9.842" height="3.938"/>
		<circle fill="#FFFFFF" cx="70.865" cy="70.866" r="5.906"/>
		<path fill="#FFFFFF" d="M80.707,70.866c0,0.178-0.016,0.353-0.027,0.528l19.288-12.582l-22.535,4.741
			C79.437,65.354,80.707,67.959,80.707,70.866z"/>
	</g>
	<g>
		
			<text transform="matrix(1 0 0 1 212.5981 93.9067)" fill="#FFFFFF" font-family="'Nudista-Medium'" font-size="72" letter-spacing="1">SPEED</text>
	</g>
	<g>
		<path fill="#00A651" d="M1062.99,88.583c-9.783,0-17.715-7.932-17.715-17.719c0-9.781,7.932-17.713,17.715-17.713
			c9.787,0,17.717,7.932,17.717,17.713C1080.707,80.652,1072.775,88.583,1062.99,88.583z"/>
	</g>
	<g>
		
			<path fill="none" stroke="#FFFFFF" stroke-width="2.8346" stroke-linecap="round" stroke-linejoin="round" stroke-miterlimit="10" d="
			M1062.99,106.3c-19.568,0-35.432-15.865-35.432-35.438c0-19.563,15.863-35.428,35.432-35.428
			c19.572,0,35.434,15.865,35.434,35.428C1098.424,90.435,1082.561,106.3,1062.99,106.3z"/>
	</g>
	<text transform="matrix(1 0 0 1 802.9004 312.3467)" fill="#FFFFFF" font-family="'Nudista-SemiBold'" font-size="36">N</text>
	
		<path fill="none" stroke="#FFFFFF" stroke-width="2.8347" stroke-linecap="round" stroke-linejoin="round" stroke-miterlimit="10" d="
		M814.959,274.607c-13.697,0-24.803,11.105-24.803,24.804c0,0.412,0.012,0.821,0.031,1.229
		c0.641,13.128,11.486,23.575,24.771,23.575c13.287,0,24.133-10.447,24.773-23.575c0.02-0.407,0.031-0.816,0.031-1.229
		C839.764,285.712,828.658,274.607,814.959,274.607z"/>
	<text transform="matrix(1 0 0 1 1011.9707 524.9463)" fill="#FFFFFF" font-family="'Nudista-SemiBold'" font-size="36">W</text>
	
		<path fill="none" stroke="#FFFFFF" stroke-width="2.8347" stroke-linecap="round" stroke-linejoin="round" stroke-miterlimit="10" d="
		M1027.559,487.207c-13.699,0-24.803,11.105-24.803,24.803c0,0.412,0.012,0.822,0.031,1.229
		c0.639,13.129,11.484,23.576,24.771,23.576c13.285,0,24.131-10.447,24.771-23.576c0.02-0.406,0.031-0.816,0.031-1.229
		C1052.361,498.312,1041.256,487.207,1027.559,487.207z"/>
	<text transform="matrix(1 0 0 1 586.7734 524.9463)" fill="#FFFFFF" font-family="'Nudista-SemiBold'" font-size="36">W</text>
	
		<path fill="none" stroke="#FFFFFF" stroke-width="2.8347" stroke-linecap="round" stroke-linejoin="round" stroke-miterlimit="10" d="
		M602.361,487.207c-13.699,0-24.803,11.105-24.803,24.803c0,0.412,0.012,0.822,0.031,1.229
		c0.641,13.129,11.484,23.576,24.771,23.576s24.133-10.447,24.773-23.576c0.02-0.406,0.029-0.816,0.029-1.229
		C627.164,498.312,616.061,487.207,602.361,487.207z"/>
	<text transform="matrix(1 0 0 1 803.7461 737.5449)" fill="#FFFFFF" font-family="'Nudista-SemiBold'" font-size="36">S</text>
	<text transform="matrix(1 0 0 1 996.4219 741.8154)" fill="#EF4136" font-family="'Nudista-SemiBold'" font-size="36">290</text>
	<text transform="matrix(1 0 0 1 986.5947 709.3447)" fill="#EF4136" font-family="'Nudista-SemiBold'" font-size="36">0.50</text>
	<text transform="matrix(1 0 0 1 996.4219 337.6768)" fill="#FFFFFF" font-family="'Nudista-SemiBold'" font-size="36">290</text>
	<text transform="matrix(1 0 0 1 986.5947 305.2061)" fill="#FFFFFF" font-family="'Nudista-SemiBold'" font-size="36">0.50</text>
	
		<path fill="none" stroke="#FFFFFF" stroke-width="2.8347" stroke-linecap="round" stroke-linejoin="round" stroke-miterlimit="10" d="
		M814.959,699.805c-13.697,0-24.803,11.105-24.803,24.805c0,0.412,0.012,0.82,0.031,1.229c0.641,13.127,11.486,23.574,24.771,23.574
		c13.287,0,24.133-10.447,24.773-23.574c0.02-0.408,0.029-0.816,0.029-1.229C839.762,710.91,828.658,699.805,814.959,699.805z"/>
	<g>
		<g>
			<text transform="matrix(1 0 0 1 137.1338 886.2002)" fill="#FFFFFF" font-family="'Nudista-SemiBold'" font-size="24">PORT</text>
			<text transform="matrix(1 0 0 1 321.0859 886.2002)" fill="#FFFFFF" font-family="'Nudista-SemiBold'" font-size="24">STBD</text>
		</g>
		<text transform="matrix(1 0 0 1 138.4414 847.2021)" fill="#FFFFFF" font-family="'Nudista-Medium'" font-size="36">-0.1</text>
		<text transform="matrix(1 0 0 1 325.2285 847.2021)" fill="#FFFFFF" font-family="'Nudista-Medium'" font-size="36">0.1</text>
		<text transform="matrix(1 0 0 1 232.1641 847.2021)" fill="#FFFFFF" font-family="'Nudista-Medium'" font-size="36">0.0</text>
		<text transform="matrix(1 0 0 1 42.1855 766.5391)" fill="#FFFFFF" font-family="'Nudista-Medium'" font-size="48">VJ</text>
		<polygon fill="#FFFFFF" points="258.659,775.98 240.942,712.201 276.376,712.201 		"/>
		
			<path fill="none" stroke="#FFFFFF" stroke-width="2.8347" stroke-linecap="round" stroke-linejoin="round" stroke-miterlimit="10" d="
			M350.785,726.373h-184.25c-13.697,0-24.802,11.105-24.802,24.803c0,13.699,11.105,24.805,24.802,24.805h184.25
			c13.698,0,24.803-11.105,24.803-24.805C375.588,737.479,364.482,726.373,350.785,726.373z"/>
		<polygon fill="#FFFFFF" points="345.825,811.414 347.241,811.414 348.659,811.414 348.659,800.783 348.659,790.154 
			347.241,790.154 345.825,790.154 345.825,800.783 		"/>
		<polygon fill="#FFFFFF" points="255.472,811.414 256.888,811.414 258.306,811.414 258.306,800.783 258.306,790.154 
			256.888,790.154 255.472,790.154 255.472,800.783 		"/>
		<polygon fill="#FFFFFF" points="278.06,804.326 279.477,804.326 280.895,804.326 280.895,797.24 280.895,790.154 279.477,790.154 
			278.06,790.154 278.06,797.24 		"/>
		<polygon fill="#FFFFFF" points="300.648,811.414 302.065,811.414 303.483,811.414 303.483,800.783 303.483,790.154 
			302.065,790.154 300.648,790.154 300.648,800.783 		"/>
		<polygon fill="#FFFFFF" points="323.236,804.326 324.653,804.326 326.071,804.326 326.071,797.24 326.071,790.154 
			324.653,790.154 323.236,790.154 323.236,797.24 		"/>
		<polygon fill="#FFFFFF" points="210.295,811.414 211.712,811.414 213.13,811.414 213.13,800.783 213.13,790.154 211.712,790.154 
			210.295,790.154 210.295,800.783 		"/>
		<polygon fill="#FFFFFF" points="232.884,804.326 234.301,804.326 235.718,804.326 235.718,797.24 235.718,790.154 
			234.301,790.154 232.884,790.154 232.884,797.24 		"/>
		<polygon fill="#FFFFFF" points="187.706,804.326 189.124,804.326 190.542,804.326 190.542,797.24 190.542,790.154 
			189.124,790.154 187.706,790.154 187.706,797.24 		"/>
		<polygon fill="#FFFFFF" points="165.118,811.414 166.535,811.414 167.953,811.414 167.953,800.783 167.953,790.154 
			166.535,790.154 165.118,790.154 165.118,800.783 		"/>
		
			<line fill="none" stroke="#FFFFFF" stroke-width="5.6693" stroke-linecap="round" stroke-linejoin="round" stroke-miterlimit="10" x1="258.659" y1="676.768" x2="258.659" y2="712.201"/>
		<g>
			<text transform="matrix(1 0 0 1 477.3711 762.6982)" fill="#FFFFFF" font-family="'Nudista-Medium'" font-size="36">0.00</text>
			
				<rect x="447.16" y="726.373" fill="none" stroke="#FFFFFF" stroke-width="1.9842" stroke-linecap="round" stroke-linejoin="round" stroke-miterlimit="10" width="119.766" height="49.607"/>
			<g>
				<path fill="#FFFFFF" d="M427.316,775.98l9.922-19.844h-19.842L427.316,775.98z M427.316,769.641l-5.334-10.668h10.669
					L427.316,769.641z"/>
				<path fill="#FFFFFF" d="M427.316,726.373l-9.92,19.844h19.842L427.316,726.373z M427.316,732.713l5.335,10.668h-10.669
					L427.316,732.713z"/>
			</g>
		</g>
	</g>
	<g>
		<g>
			<text transform="matrix(1 0 0 1 136.4258 407.8574)" fill="#FFFFFF" font-family="'Nudista-SemiBold'" font-size="24">BACK</text>
			<text transform="matrix(1 0 0 1 326.2812 407.8574)" fill="#FFFFFF" font-family="'Nudista-SemiBold'" font-size="24">FWD</text>
		</g>
		<text transform="matrix(1 0 0 1 138.4414 368.8594)" fill="#FFFFFF" font-family="'Nudista-Medium'" font-size="36">-0.1</text>
		<text transform="matrix(1 0 0 1 325.2285 368.8594)" fill="#FFFFFF" font-family="'Nudista-Medium'" font-size="36">0.1</text>
		<text transform="matrix(1 0 0 1 232.1641 368.8594)" fill="#FFFFFF" font-family="'Nudista-Medium'" font-size="36">0.0</text>
		<text transform="matrix(1 0 0 1 42.1855 288.1953)" fill="#FFFFFF" font-family="'Nudista-Medium'" font-size="48">VJ</text>
		<polygon fill="#FFFFFF" points="258.659,297.64 240.942,233.861 276.376,233.861 		"/>
		
			<path fill="none" stroke="#FFFFFF" stroke-width="2.8347" stroke-linecap="round" stroke-linejoin="round" stroke-miterlimit="10" d="
			M350.785,248.033h-184.25c-13.697,0-24.802,11.105-24.802,24.803c0,13.699,11.105,24.805,24.802,24.805h184.25
			c13.698,0,24.803-11.105,24.803-24.805C375.588,259.138,364.482,248.033,350.785,248.033z"/>
		<polygon fill="#FFFFFF" points="345.825,333.074 347.241,333.074 348.659,333.074 348.659,322.443 348.659,311.814 
			347.241,311.814 345.825,311.814 345.825,322.443 		"/>
		<polygon fill="#FFFFFF" points="255.472,333.074 256.888,333.074 258.306,333.074 258.306,322.443 258.306,311.814 
			256.888,311.814 255.472,311.814 255.472,322.443 		"/>
		<polygon fill="#FFFFFF" points="278.06,325.986 279.477,325.986 280.895,325.986 280.895,318.9 280.895,311.814 279.477,311.814 
			278.06,311.814 278.06,318.9 		"/>
		<polygon fill="#FFFFFF" points="300.648,333.074 302.065,333.074 303.483,333.074 303.483,322.443 303.483,311.814 
			302.065,311.814 300.648,311.814 300.648,322.443 		"/>
		<polygon fill="#FFFFFF" points="323.236,325.986 324.653,325.986 326.071,325.986 326.071,318.9 326.071,311.814 324.653,311.814 
			323.236,311.814 323.236,318.9 		"/>
		<polygon fill="#FFFFFF" points="210.295,333.074 211.712,333.074 213.13,333.074 213.13,322.443 213.13,311.814 211.712,311.814 
			210.295,311.814 210.295,322.443 		"/>
		<polygon fill="#FFFFFF" points="232.884,325.986 234.301,325.986 235.718,325.986 235.718,318.9 235.718,311.814 234.301,311.814 
			232.884,311.814 232.884,318.9 		"/>
		<polygon fill="#FFFFFF" points="187.706,325.986 189.124,325.986 190.542,325.986 190.542,318.9 190.542,311.814 189.124,311.814 
			187.706,311.814 187.706,318.9 		"/>
		<polygon fill="#FFFFFF" points="165.118,333.074 166.535,333.074 167.953,333.074 167.953,322.443 167.953,311.814 
			166.535,311.814 165.118,311.814 165.118,322.443 		"/>
		
			<line fill="none" stroke="#FFFFFF" stroke-width="5.6693" stroke-linecap="round" stroke-linejoin="round" stroke-miterlimit="10" x1="258.659" y1="198.427" x2="258.659" y2="233.861"/>
		<g>
			<text transform="matrix(1 0 0 1 477.3711 284.3555)" fill="#FFFFFF" font-family="'Nudista-Medium'" font-size="36">0.00</text>
			
				<rect x="447.16" y="248.033" fill="none" stroke="#FFFFFF" stroke-width="1.9842" stroke-linecap="round" stroke-linejoin="round" stroke-miterlimit="10" width="119.766" height="49.607"/>
			<g>
				<path fill="#FFFFFF" d="M427.316,297.64l9.922-19.844h-19.842L427.316,297.64z M427.316,291.3l-5.334-10.668h10.669
					L427.316,291.3z"/>
				<path fill="#FFFFFF" d="M427.316,248.033l-9.92,19.844h19.842L427.316,248.033z M427.316,254.373l5.335,10.668h-10.669
					L427.316,254.373z"/>
			</g>
		</g>
	</g>
	
		<path fill="none" stroke="#FFFFFF" stroke-width="2.8347" stroke-linecap="round" stroke-linejoin="round" stroke-miterlimit="10" d="
		M827.488,499.482c-0.953-0.951-2.023-1.779-3.172-2.496L709.732,406.78l90.203,114.587c0.715,1.145,1.541,2.213,2.49,3.162
		l0.006,0.008l0,0c0.002,0,0.002,0,0.002,0c3.205,3.207,7.635,5.189,12.527,5.189c4.891,0,9.32-1.982,12.527-5.189
		c3.205-3.207,5.188-7.635,5.188-12.527S830.693,502.688,827.488,499.482z"/>
	<path fill="#FFFFFF" d="M822.047,512.01c0,1.957-0.793,3.729-2.076,5.012c-1.281,1.281-3.055,2.074-5.01,2.074
		c-1.957,0-3.73-0.793-5.012-2.074c-1.283-1.283-2.076-3.055-2.076-5.012s0.793-3.729,2.076-5.012
		c1.281-1.281,3.055-2.074,5.012-2.074c1.955,0,3.729,0.793,5.01,2.074C821.254,508.281,822.047,510.053,822.047,512.01z"/>
	<g>
		
			<path fill="none" stroke="#FFFFFF" stroke-width="2.8347" stroke-linecap="round" stroke-linejoin="round" stroke-miterlimit="10" d="
			M1002.756,512.01c0-13.213,10.332-24.01,23.359-24.758c-11.324-97.625-88.771-175.074-186.396-186.398
			c-0.748,13.026-11.545,23.36-24.76,23.36c-13.213,0-24.01-10.334-24.758-23.36c-97.625,11.324-175.072,88.773-186.396,186.398
			c13.025,0.748,23.359,11.545,23.359,24.758c0,13.215-10.334,24.01-23.359,24.758c11.324,97.625,88.773,175.072,186.396,186.396
			c0.748-13.025,11.545-23.359,24.758-23.359c13.215,0,24.012,10.334,24.76,23.359c97.623-11.324,175.07-88.771,186.396-186.396
			C1013.088,536.02,1002.756,525.223,1002.756,512.01z"/>
	</g>
</g>
</svg>
