<?xml version="1.0" encoding="utf-8"?>
<!-- Generator: Adobe Illustrator 16.0.0, SVG Export Plug-In . SVG Version: 6.00 Build 0)  -->
<!DOCTYPE svg PUBLIC "-//W3C//DTD SVG 1.1//EN" "http://www.w3.org/Graphics/SVG/1.1/DTD/svg11.dtd">
<svg version="1.1" xmlns="http://www.w3.org/2000/svg" xmlns:xlink="http://www.w3.org/1999/xlink" x="0px" y="0px"
	 width="1133.86px" height="637.795px" viewBox="0 0 1133.86 637.795" enable-background="new 0 0 1133.86 637.795"
	 xml:space="preserve">
<g id="Frame">
	
		<path fill="none" stroke="#FFFFFF" stroke-width="5.6693" stroke-linecap="round" stroke-linejoin="round" stroke-miterlimit="10" d="
		M1133.858,566.932c0,39.139-31.728,70.866-70.866,70.866H70.867C31.729,637.798,0,606.071,0,566.932V70.866
		C0,31.728,31.729,0,70.867,0h992.125c39.139,0,70.866,31.728,70.866,70.866V566.932z"/>
</g>
<g id="Artwork">
	<g>
		
			<path fill="none" stroke="#FFFFFF" stroke-width="5.6693" stroke-linecap="round" stroke-linejoin="round" stroke-miterlimit="10" d="
			M70.866,0c39.143,0,70.867,31.729,70.867,70.856c0,39.146-31.73,70.876-70.867,70.876S0,110.003,0,70.856"/>
	</g>
	<g>
		
			<path fill="none" stroke="#FFFFFF" stroke-width="2.8346" stroke-linecap="round" stroke-linejoin="round" stroke-miterlimit="10" d="
			M1062.99,106.299c-19.568,0-35.433-15.864-35.433-35.438c0-19.563,15.864-35.428,35.433-35.428
			c19.57,0,35.434,15.864,35.434,35.428C1098.424,90.435,1082.559,106.299,1062.99,106.299z"/>
	</g>
	<g>
		<path fill="#00A651" d="M1062.99,88.582c-9.784,0-17.716-7.932-17.716-17.719c0-9.781,7.932-17.713,17.716-17.713
			c9.786,0,17.717,7.932,17.717,17.713C1080.707,80.65,1072.774,88.582,1062.99,88.582z"/>
	</g>
	<g>
		<g>
			<rect x="68.897" y="37.401" fill="#FFFFFF" width="3.94" height="27.557"/>
			<polygon fill="#FFFFFF" points="84.648,61.022 70.867,61.022 57.088,61.022 70.867,80.707 			"/>
		</g>
		<rect x="25.594" y="93.306" fill="#FFFFFF" width="90.55" height="3.938"/>
	</g>
	<g>
		
			<text transform="matrix(1 0 0 1 212.5981 93.9058)" fill="#FFFFFF" font-family="'Nudista-Medium'" font-size="72" letter-spacing="1">DEPTH</text>
	</g>
	<polygon opacity="0.25" fill="#FFFFFF" points="963.777,323.327 963.777,345.471 963.777,367.618 963.777,389.764 963.777,411.911 
		963.777,434.053 963.777,456.2 963.777,478.35 963.777,500.489 963.777,522.639 963.777,544.782 963.777,566.928 1027.557,566.928 
		1027.557,544.782 1027.557,522.639 1027.557,500.489 1027.557,478.35 1027.557,456.2 1027.557,434.053 1027.557,411.911 
		1027.557,389.764 1027.557,367.618 1027.557,345.471 1027.557,323.327 	"/>
	<polygon opacity="0.66" fill="#FFFFFF" points="963.777,212.598 963.777,234.745 963.777,256.889 963.777,279.036 963.777,301.182 
		963.777,323.327 1027.557,323.327 1027.557,301.182 1027.557,279.036 1027.557,256.889 1027.557,234.745 1027.557,212.598 	"/>
	<rect x="896.457" y="212.598" fill="#FFFFFF" width="31.89" height="7.086"/>
	<rect x="896.457" y="559.842" fill="#FFFFFF" width="31.89" height="7.086"/>
	<rect x="910.63" y="516.436" fill="#FFFFFF" width="17.717" height="7.088"/>
	<rect x="896.457" y="386.219" fill="#FFFFFF" width="31.89" height="7.088"/>
	<rect x="910.63" y="342.813" fill="#FFFFFF" width="17.717" height="7.088"/>
	<rect x="896.457" y="473.03" fill="#FFFFFF" width="31.89" height="7.088"/>
	<rect x="910.63" y="429.625" fill="#FFFFFF" width="17.717" height="7.088"/>
	<rect x="896.457" y="299.409" fill="#FFFFFF" width="31.89" height="7.088"/>
	<rect x="910.63" y="256.002" fill="#FFFFFF" width="17.717" height="7.088"/>
	
		<line fill="none" stroke="#FFFFFF" stroke-width="14.1732" stroke-miterlimit="10" x1="1062.991" y1="323.327" x2="963.777" y2="323.327"/>
	<text transform="matrix(1 0 0 1 834.7109 253.3979)" fill="#FFFFFF" font-family="'Nudista-Medium'" font-size="48">0</text>
	<text transform="matrix(1 0 0 1 805.8154 566.103)" fill="#FFFFFF" font-family="'Nudista-Medium'" font-size="48">50</text>
	<text transform="matrix(1 0 0 1 41.7295 557.4858)" fill="#FFFFFF" font-family="'Nudista-Medium'" font-size="48">SP</text>
	<text transform="matrix(1 0 0 1 486.335 553.645)" fill="#FFFFFF" font-family="'Nudista-Medium'" font-size="36">10.0</text>
	
		<rect x="141.733" y="517.323" fill="none" stroke="#FFFFFF" stroke-width="2.8347" stroke-linecap="round" stroke-linejoin="round" stroke-miterlimit="10" width="49.606" height="49.605"/>
	<text transform="matrix(1 0 0 1 708.6611 435.4438)" fill="#EF4136" font-family="'Nudista-SemiBold'" font-size="60">10.0</text>
	<text transform="matrix(1 0 0 1 708.6611 382.4224)" fill="#00A651" font-family="'Nudista-SemiBold'" font-size="60">10.0</text>
	<g>
		
			<polyline fill="none" stroke="#FFFFFF" stroke-width="2.8347" stroke-linecap="round" stroke-linejoin="round" stroke-miterlimit="10" points="
			155.904,403.936 166.535,414.567 177.164,403.936 		"/>
	</g>
	<g>
		
			<polyline fill="none" stroke="#FFFFFF" stroke-width="2.8347" stroke-linecap="round" stroke-linejoin="round" stroke-miterlimit="10" points="
			179.69,533.358 162.152,550.895 153.382,542.122 		"/>
	</g>
	
		<line fill="none" stroke="#FFFFFF" stroke-width="2.8347" stroke-linecap="round" stroke-linejoin="round" stroke-miterlimit="10" x1="166.535" y1="414.567" x2="166.535" y2="394.522"/>
	<g>
		
			<polyline fill="none" stroke="#FFFFFF" stroke-width="2.8347" stroke-linecap="round" stroke-linejoin="round" stroke-miterlimit="10" points="
			357.869,405.153 347.24,394.522 336.609,405.153 		"/>
	</g>
	
		<line fill="none" stroke="#FFFFFF" stroke-width="2.8347" stroke-linecap="round" stroke-linejoin="round" stroke-miterlimit="10" x1="347.24" y1="394.522" x2="347.24" y2="414.567"/>
	<text transform="matrix(1 0 0 1 138.4414 344.0542)" fill="#FFFFFF" font-family="'Nudista-Medium'" font-size="36">-1.0</text>
	<text transform="matrix(1 0 0 1 143.5566 383.0522)" fill="#FFFFFF" font-family="'Nudista-SemiBold'" font-size="24">ROV</text>
	<text transform="matrix(1 0 0 1 325.2295 344.0542)" fill="#FFFFFF" font-family="'Nudista-Medium'" font-size="36">1.0</text>
	<text transform="matrix(1 0 0 1 232.1641 344.0542)" fill="#FFFFFF" font-family="'Nudista-Medium'" font-size="36">0.0</text>
	<text transform="matrix(1 0 0 1 42.1855 263.3911)" fill="#FFFFFF" font-family="'Nudista-Medium'" font-size="48">VJ</text>
	<polygon fill="#FFFFFF" points="258.66,272.834 240.943,209.055 276.377,209.055 	"/>
	
		<path fill="none" stroke="#FFFFFF" stroke-width="2.8347" stroke-linecap="round" stroke-linejoin="round" stroke-miterlimit="10" d="
		M350.786,223.229h-184.25c-13.697,0-24.803,11.104-24.803,24.803s11.105,24.803,24.803,24.803h184.25
		c13.697,0,24.803-11.104,24.803-24.803S364.483,223.229,350.786,223.229z"/>
	<polygon fill="#FFFFFF" points="345.826,308.268 347.242,308.268 348.66,308.268 348.66,297.637 348.66,287.008 347.242,287.008 
		345.826,287.008 345.826,297.637 	"/>
	<polygon fill="#FFFFFF" points="255.473,308.268 256.889,308.268 258.307,308.268 258.307,297.637 258.307,287.008 
		256.889,287.008 255.473,287.008 255.473,297.637 	"/>
	<polygon fill="#FFFFFF" points="278.061,301.182 279.477,301.182 280.896,301.182 280.896,294.096 280.896,287.008 
		279.477,287.008 278.061,287.008 278.061,294.096 	"/>
	<polygon fill="#FFFFFF" points="300.649,308.268 302.066,308.268 303.484,308.268 303.484,297.637 303.484,287.008 
		302.066,287.008 300.649,287.008 300.649,297.637 	"/>
	<polygon fill="#FFFFFF" points="323.237,301.182 324.654,301.182 326.072,301.182 326.072,294.096 326.072,287.008 
		324.654,287.008 323.237,287.008 323.237,294.096 	"/>
	<polygon fill="#FFFFFF" points="210.295,308.268 211.713,308.268 213.131,308.268 213.131,297.637 213.131,287.008 
		211.713,287.008 210.295,287.008 210.295,297.637 	"/>
	<polygon fill="#FFFFFF" points="232.885,301.182 234.302,301.182 235.719,301.182 235.719,294.096 235.719,287.008 
		234.302,287.008 232.885,287.008 232.885,294.096 	"/>
	<polygon fill="#FFFFFF" points="187.707,301.182 189.125,301.182 190.543,301.182 190.543,294.096 190.543,287.008 
		189.125,287.008 187.707,287.008 187.707,294.096 	"/>
	<polygon fill="#FFFFFF" points="165.119,308.268 166.536,308.268 167.954,308.268 167.954,297.637 167.954,287.008 
		166.536,287.008 165.119,287.008 165.119,297.637 	"/>
	
		<line fill="none" stroke="#FFFFFF" stroke-width="5.6693" stroke-linecap="round" stroke-linejoin="round" stroke-miterlimit="10" x1="258.66" y1="173.624" x2="258.66" y2="209.055"/>
	<text transform="matrix(1 0 0 1 324.2627 383.0522)" fill="#FFFFFF" font-family="'Nudista-SemiBold'" font-size="24">ROV</text>
	<g>
		<text transform="matrix(1 0 0 1 477.3711 259.5503)" fill="#FFFFFF" font-family="'Nudista-Medium'" font-size="36">0.00</text>
		
			<rect x="447.161" y="223.229" fill="none" stroke="#FFFFFF" stroke-width="1.9842" stroke-linecap="round" stroke-linejoin="round" stroke-miterlimit="10" width="119.767" height="49.605"/>
		<g>
			<path fill="#FFFFFF" d="M427.317,272.834l9.922-19.842h-19.842L427.317,272.834z M427.317,266.497l-5.334-10.67h10.669
				L427.317,266.497z"/>
			<path fill="#FFFFFF" d="M427.317,223.229l-9.92,19.842h19.842L427.317,223.229z M427.317,229.567l5.335,10.67h-10.669
				L427.317,229.567z"/>
		</g>
	</g>
	
		<rect x="447.161" y="517.323" fill="none" stroke="#FFFFFF" stroke-width="1.9842" stroke-linecap="round" stroke-linejoin="round" stroke-miterlimit="10" width="119.767" height="49.605"/>
	<polygon fill="#FFFFFF" points="427.317,566.928 417.397,547.086 437.239,547.086 	"/>
	<polygon fill="#FFFFFF" points="427.317,517.323 417.397,537.165 437.239,537.165 	"/>
</g>
</svg>
